<?xml version="1.0" encoding="utf-8"?>
<!-- Generator: Adobe Illustrator 18.1.1, SVG Export Plug-In . SVG Version: 6.00 Build 0)  -->
<svg version="1.1" id="Layer_1" xmlns="http://www.w3.org/2000/svg" xmlns:xlink="http://www.w3.org/1999/xlink" x="0px" y="0px"
	 viewBox="0 0 519.9 370.4" enable-background="new 0 0 519.9 370.4" xml:space="preserve">
<g>
	<path fill="#F5F5F5" d="M315.8,220h-266c-3.9,0-7-3.2-7-7v-46.7v-132c0-3.9,3.2-7,7-7h266c3.9,0,7,3.2,7,7V213
		C322.8,216.8,319.6,220,315.8,220z"/>
	<circle fill="#FF1D25" cx="55.3" cy="39.1" r="3.4"/>
	<circle fill="#7AC943" cx="76" cy="39.1" r="3.4"/>
	<circle fill="#FF931E" cx="65.7" cy="39.1" r="3.4"/>
	<rect x="51.9" y="59.8" fill="#CCCCCC" width="8" height="8"/>
	<rect x="51.9" y="75.8" fill="#CCCCCC" width="8" height="8"/>
	<rect x="51.9" y="91.8" fill="#CCCCCC" width="8" height="8"/>
	<rect x="51.9" y="107.8" fill="#CCCCCC" width="8" height="8"/>
	<rect x="51.9" y="123.8" fill="#CCCCCC" width="8" height="8"/>
	<rect x="51.9" y="139.8" fill="#CCCCCC" width="8" height="8"/>
	<rect x="51.9" y="155.8" fill="#CCCCCC" width="8" height="8"/>
	<polygon fill="#CCCCCC" points="59.9,179.8 51.9,179.8 51.9,171.8 57.2,171.8 59.9,171.8 	"/>
	<rect x="51.9" y="187.8" fill="#CCCCCC" width="8" height="8"/>
	<rect x="51.9" y="203.8" fill="#CCCCCC" width="8" height="8"/>
	<rect x="74.3" y="59.8" fill="#7AC943" width="42.7" height="8"/>
	<rect x="74.3" y="75.8" fill="#FF931E" width="30.4" height="8"/>
	<rect x="135.6" y="139.8" fill="#CCCCCC" width="30.4" height="8"/>
	<rect x="84.3" y="91.8" fill="#CCCCCC" width="50.7" height="8"/>
	<rect x="94.3" y="107.8" fill="#CCCCCC" width="25.3" height="8"/>
	<rect x="145" y="91.8" fill="#CCCCCC" width="25.3" height="8"/>
	<rect x="180.3" y="91.8" fill="#CCCCCC" width="25.3" height="8"/>
	<rect x="172.4" y="203.8" fill="#CCCCCC" width="25.3" height="8"/>
	<rect x="207.8" y="203.8" fill="#CCCCCC" width="25.3" height="8"/>
	<rect x="125.6" y="187.8" fill="#CCCCCC" width="26.8" height="8"/>
	<rect x="137.2" y="123.8" fill="#CCCCCC" width="28.8" height="8"/>
	<rect x="154.8" y="123.8" fill="#CCCCCC" width="17.2" height="8"/>
	<rect x="131.6" y="107.8" fill="#F8754F" width="55.6" height="8"/>
	<rect x="84.3" y="203.8" fill="#CCCCCC" width="78.1" height="8"/>
	<rect x="84.5" y="155.8" fill="#CCCCCC" width="35.2" height="8"/>
	<rect x="94.5" y="139.8" fill="#CCCCCC" width="31.2" height="8"/>
	<rect x="183.1" y="123.8" fill="#CCCCCC" width="45" height="8"/>
	<rect x="74.3" y="171.8" fill="#CCCCCC" width="27.6" height="8"/>
	<rect x="74.5" y="187.8" fill="#7AC943" width="41.4" height="8"/>
	<rect x="112.1" y="171.8" fill="#CCCCCC" width="26.2" height="8"/>
</g>
<g>
	<path fill="#F5F5F5" d="M83.9,296.9H66.4c-1.7,0-3-1.3-3-3v-13.2c0-1.7,1.3-3,3-3h17.6c1.6,0,3,1.3,3,3v13.2
		C86.9,295.5,85.6,296.9,83.9,296.9z"/>
	<path fill="#F5F5F5" d="M113.5,296.9H95.9c-1.7,0-3-1.3-3-3v-13.2c0-1.7,1.3-3,3-3h17.6c1.7,0,3,1.3,3,3v13.2
		C116.5,295.5,115.1,296.9,113.5,296.9z"/>
	<path fill="#F5F5F5" d="M143,296.9h-17.6c-1.6,0-3-1.3-3-3v-13.2c0-1.7,1.4-3,3-3H143c1.7,0,3,1.3,3,3v13.2
		C146,295.5,144.6,296.9,143,296.9z"/>
	<path fill="#F5F5F5" d="M172.5,296.9h-17.6c-1.6,0-3-1.3-3-3v-13.2c0-1.7,1.4-3,3-3h17.6c1.7,0,3,1.3,3,3v13.2
		C175.5,295.5,174.1,296.9,172.5,296.9z"/>
	<path fill="#F5F5F5" d="M202,296.9h-17.6c-1.6,0-3-1.3-3-3v-13.2c0-1.7,1.4-3,3-3H202c1.6,0,3,1.3,3,3v13.2
		C205,295.5,203.7,296.9,202,296.9z"/>
	<path fill="#F5F5F5" d="M231.5,296.9H214c-1.6,0-3-1.3-3-3v-13.2c0-1.7,1.4-3,3-3h17.6c1.6,0,3,1.3,3,3v13.2
		C234.5,295.5,233.2,296.9,231.5,296.9z"/>
	<path fill="#F5F5F5" d="M83.9,345.9H66.4c-1.7,0-3-1.3-3-3v-13.2c0-1.7,1.3-3,3-3h17.6c1.6,0,3,1.3,3,3v13.2
		C86.9,344.5,85.6,345.9,83.9,345.9z"/>
	<path fill="#F5F5F5" d="M113.5,345.9H95.9c-1.7,0-3-1.3-3-3v-13.2c0-1.7,1.3-3,3-3h17.6c1.7,0,3,1.3,3,3v13.2
		C116.5,344.5,115.1,345.9,113.5,345.9z"/>
	<path fill="#F5F5F5" d="M143,345.9h-17.6c-1.6,0-3-1.3-3-3v-13.2c0-1.7,1.4-3,3-3H143c1.7,0,3,1.3,3,3v13.2
		C146,344.5,144.6,345.9,143,345.9z"/>
	<path fill="#F5F5F5" d="M172.5,345.9h-17.6c-1.6,0-3-1.3-3-3v-13.2c0-1.7,1.4-3,3-3h17.6c1.7,0,3,1.3,3,3v13.2
		C175.5,344.5,174.1,345.9,172.5,345.9z"/>
	<path fill="#F5F5F5" d="M202,345.9h-17.6c-1.6,0-3-1.3-3-3v-13.2c0-1.7,1.4-3,3-3H202c1.6,0,3,1.3,3,3v13.2
		C205,344.5,203.7,345.9,202,345.9z"/>
	<path fill="#F5F5F5" d="M231.5,345.9H214c-1.6,0-3-1.3-3-3v-13.2c0-1.7,1.4-3,3-3h17.6c1.6,0,3,1.3,3,3v13.2
		C234.5,344.5,233.2,345.9,231.5,345.9z"/>
	<path fill="#F5F5F5" d="M231.5,345.9H214c-1.6,0-3-1.3-3-3v-13.2c0-1.7,1.4-3,3-3h17.6c1.6,0,3,1.3,3,3v13.2
		C234.5,344.5,233.2,345.9,231.5,345.9z"/>
	<path fill="#F5F5F5" d="M261.1,345.9h-17.6c-1.6,0-3-1.3-3-3v-13.2c0-1.7,1.4-3,3-3h17.6c1.6,0,3,1.3,3,3v13.2
		C264.1,344.5,262.7,345.9,261.1,345.9z"/>
	<path fill="#F5F5F5" d="M290.6,345.9H273c-1.6,0-3-1.3-3-3v-13.2c0-1.7,1.4-3,3-3h17.6c1.6,0,3,1.3,3,3v13.2
		C293.6,344.5,292.2,345.9,290.6,345.9z"/>
	<path fill="#F5F5F5" d="M337.8,345.9h-35.3c-1.7,0-3-1.3-3-3v-13.2c0-1.7,1.3-3,3-3h35.3c1.6,0,3,1.3,3,3v13.2
		C340.8,344.5,339.5,345.9,337.8,345.9z"/>
	<path fill="#F5F5F5" d="M320.1,370.4h-17.6c-1.7,0-3-1.3-3-3v-13.2c0-1.7,1.3-3,3-3h17.6c1.7,0,3,1.3,3,3v13.2
		C323.1,369,321.8,370.4,320.1,370.4z"/>
	<path fill="#F5F5F5" d="M261.1,296.9h-17.6c-1.6,0-3-1.3-3-3v-13.2c0-1.7,1.4-3,3-3h17.6c1.6,0,3,1.3,3,3v13.2
		C264.1,295.5,262.7,296.9,261.1,296.9z"/>
	<path fill="#F5F5F5" d="M290.6,296.9H273c-1.6,0-3-1.3-3-3v-13.2c0-1.7,1.4-3,3-3h17.6c1.6,0,3,1.3,3,3v13.2
		C293.6,295.5,292.2,296.9,290.6,296.9z"/>
	<path fill="#F5F5F5" d="M320.1,296.9h-17.6c-1.7,0-3-1.3-3-3v-13.2c0-1.7,1.3-3,3-3h17.6c1.7,0,3,1.3,3,3v13.2
		C323.1,295.5,321.8,296.9,320.1,296.9z"/>
	<path fill="#F5F5F5" d="M101.7,321.4H66.4c-1.7,0-3-1.3-3-3v-13.2c0-1.7,1.3-3,3-3h35.3c1.7,0,3,1.3,3,3v13.2
		C104.7,320,103.3,321.4,101.7,321.4z"/>
	<path fill="#F5F5F5" d="M101.7,370.4H66.4c-1.7,0-3-1.3-3-3v-13.2c0-1.7,1.3-3,3-3h35.3c1.7,0,3,1.3,3,3v13.2
		C104.7,369,103.3,370.4,101.7,370.4z"/>
	<path fill="#F5F5F5" d="M368.6,370.4h-35.3c-1.6,0-3-1.3-3-3v-13.2c0-1.7,1.4-3,3-3h35.3c1.7,0,3,1.3,3,3v13.2
		C371.6,369,370.2,370.4,368.6,370.4z"/>
	<path fill="#F5F5F5" d="M101.7,345.9H66.4c-1.7,0-3-1.3-3-3v-13.2c0-1.7,1.3-3,3-3h35.3c1.7,0,3,1.3,3,3v13.2
		C104.7,344.5,103.3,345.9,101.7,345.9z"/>
	<path fill="#F5F5F5" d="M290.6,370.4h-177c-1.7,0-3-1.3-3-3v-13.2c0-1.7,1.3-3,3-3h177c1.6,0,3,1.3,3,3v13.2
		C293.6,369,292.2,370.4,290.6,370.4z"/>
	<path fill="#F5F5F5" d="M368.6,296.9h-35.3c-1.6,0-3-1.3-3-3v-13.2c0-1.7,1.4-3,3-3h35.3c1.7,0,3,1.3,3,3v13.2
		C371.6,295.5,370.2,296.9,368.6,296.9z"/>
	<path fill="#F5F5F5" d="M131.2,321.4h-17.6c-1.7,0-3-1.3-3-3v-13.2c0-1.7,1.3-3,3-3h17.6c1.7,0,3,1.3,3,3v13.2
		C134.2,320,132.8,321.4,131.2,321.4z"/>
	<path fill="#F5F5F5" d="M160.7,321.4h-17.6c-1.7,0-3-1.3-3-3v-13.2c0-1.7,1.3-3,3-3h17.6c1.7,0,3,1.3,3,3v13.2
		C163.7,320,162.4,321.4,160.7,321.4z"/>
	<path fill="#F5F5F5" d="M368.6,345.9H351c-1.6,0-3-1.3-3-3v-37.7c0-1.7,1.4-3,3-3h17.6c1.7,0,3,1.3,3,3v37.7
		C371.6,344.5,370.2,345.9,368.6,345.9z"/>
	<path fill="#F5F5F5" d="M190.2,321.4h-17.6c-1.7,0-3-1.3-3-3v-13.2c0-1.7,1.3-3,3-3h17.6c1.7,0,3,1.3,3,3v13.2
		C193.2,320,191.9,321.4,190.2,321.4z"/>
	<path fill="#F5F5F5" d="M219.8,321.4h-17.6c-1.7,0-3-1.3-3-3v-13.2c0-1.7,1.3-3,3-3h17.6c1.7,0,3,1.3,3,3v13.2
		C222.8,320,221.4,321.4,219.8,321.4z"/>
	<path fill="#F5F5F5" d="M249.3,321.4h-17.6c-1.7,0-3-1.3-3-3v-13.2c0-1.7,1.3-3,3-3h17.6c1.7,0,3,1.3,3,3v13.2
		C252.3,320,250.9,321.4,249.3,321.4z"/>
	<path fill="#F5F5F5" d="M278.8,321.4h-17.6c-1.7,0-3-1.3-3-3v-13.2c0-1.7,1.3-3,3-3h17.6c1.7,0,3,1.3,3,3v13.2
		C281.8,320,280.4,321.4,278.8,321.4z"/>
	<path fill="#F5F5F5" d="M308.3,321.4h-17.6c-1.7,0-3-1.3-3-3v-13.2c0-1.7,1.3-3,3-3h17.6c1.7,0,3,1.3,3,3v13.2
		C311.3,320,310,321.4,308.3,321.4z"/>
	<path fill="#F5F5F5" d="M308.3,321.4h-17.6c-1.7,0-3-1.3-3-3v-13.2c0-1.7,1.3-3,3-3h17.6c1.7,0,3,1.3,3,3v13.2
		C311.3,320,310,321.4,308.3,321.4z"/>
	<path fill="#F5F5F5" d="M317.3,318.4v-13.2c0-1.7,1.3-3,3-3h17.6c1.6,0,3,1.3,3,3v13.2c0,1.7-1.4,3-3,3h-17.6
		C318.6,321.4,317.3,320,317.3,318.4z"/>
</g>
<polygon fill="#F5F5F5" points="43,164.3 59.8,174.8 110,119.4 129.3,133.7 129.8,160.9 112.1,152.3 62.1,210.8 43,199.7 43,164.3
	"/>
<g>
	<polygon fill="#0D71BA" points="129,150.5 111.7,139 61.3,199.7 39.3,187.6 14.5,215.7 1.2,215.7 37.1,175 59,187 109.7,125.7
		129,138.6 	"/>
</g>
<g>
	<g>

			<ellipse transform="matrix(0.6599 -0.7514 0.7514 0.6599 -103.34 447.1347)" fill="#E6E6E6" cx="442.2" cy="337.7" rx="16.7" ry="26.4"/>

			<ellipse transform="matrix(-0.9155 -0.4024 0.4024 -0.9155 692.7803 791.0748)" fill="#E6E6E6" cx="429.5" cy="322.8" rx="9" ry="14.3"/>
	</g>
	<path fill="#F5F5F5" d="M474.6,320.9c1.3,20.3-8,37.4-20.9,38.2c-12.9,0.8-24.3-14.9-25.7-35.2c-1.3-20.3,0.1-43.9,21.2-40.1
		C472.4,288,473.3,300.6,474.6,320.9z"/>
	<path fill="#666666" d="M452.3,310.1c0,1.4-1.1,2.5-2.5,2.5l0,0c-1.4,0-2.5-1.1-2.5-2.5l0-10c0-1.4,1.1-2.5,2.5-2.5l0,0
		c1.4,0,2.5,1.1,2.5,2.5L452.3,310.1z"/>
	<g>
		<g>
			<path fill="#E6E6E6" d="M531.2,307.3c1.9,0,1.9-3,0-3C529.3,304.3,529.3,307.3,531.2,307.3L531.2,307.3z"/>
		</g>
	</g>
</g>
<polygon opacity="0.1" points="181,220 125.6,220 111.2,27 181,27 "/>
<g>
	<path fill="#E6E6E6" d="M472.8,231h-336c-3.9,0-7-3-7-6.7V7c0-3.7,3.2-6.7,7-6.7h336c3.9,0,7,3,7,6.7v217.4
		C479.8,228,476.6,231,472.8,231z"/>
	<rect x="129.8" y="27.2" fill="#7AC943" width="350" height="207.6"/>
	<rect x="349" y="63.9" fill="#FFFFFF" width="27.3" height="8"/>
	<rect x="408" y="63.9" fill="#FFFFFF" width="28.2" height="8"/>
	<rect x="379" y="79.6" opacity="0.2" width="39.3" height="8"/>
	<rect x="350" y="79.6" opacity="0.2" width="21.4" height="8"/>
	<rect x="400.9" y="94.3" opacity="0.2" width="27.4" height="8"/>
	<rect x="350" y="94.3" opacity="0.2" width="43.9" height="8"/>
	<rect x="379" y="176.9" opacity="0.2" width="39.3" height="8"/>
	<rect x="350" y="176.9" opacity="0.2" width="21.4" height="8"/>
	<rect x="400.9" y="191.7" opacity="0.2" width="27.4" height="8"/>
	<rect x="350" y="191.7" opacity="0.2" width="43.9" height="8"/>
	<rect x="385.7" y="63.9" fill="#FFFFFF" width="12.3" height="8"/>
	<g opacity="0.3">
		<rect x="142.5" y="64.3" fill="#FFFFFF" width="27.3" height="8"/>
		<rect x="142.5" y="80.3" fill="#FFFFFF" width="8.8" height="8"/>
		<rect x="142.5" y="96.3" fill="#FFFFFF" width="32.4" height="8"/>
		<rect x="142.5" y="112.3" fill="#FFFFFF" width="16.2" height="8"/>
		<rect x="142.5" y="128.3" fill="#FFFFFF" width="25.6" height="8"/>
		<rect x="142.5" y="144.3" fill="#FFFFFF" width="11" height="8"/>
		<rect x="142.5" y="176.3" fill="#FFFFFF" width="17.6" height="8"/>
		<rect x="142.5" y="192.3" fill="#FFFFFF" width="36.7" height="8"/>
		<rect x="142.5" y="160.3" fill="#FFFFFF" width="28.8" height="8"/>
	</g>
	<circle fill="#FF1D25" cx="142.3" cy="15.1" r="3.4"/>
	<circle fill="#7AC943" cx="163" cy="15.1" r="3.4"/>
	<circle fill="#FF931E" cx="152.7" cy="15.1" r="3.4"/>
	<rect x="206" y="44" fill="#724A82" width="120" height="174"/>
	<rect x="350" y="125" opacity="0.2" width="108" height="31"/>
	<rect x="362.7" y="136.4" fill="#FFFFFF" width="21.4" height="8"/>
	<rect x="394.6" y="136.4" fill="#7AC943" width="51.8" height="8"/>
	<rect x="206" y="44" opacity="0.2" width="14" height="174"/>
	<rect x="231" y="92.6" fill="#FFFFFF" width="41.1" height="12"/>
	<rect x="231" y="135.6" fill="#FFFFFF" width="41.1" height="12"/>
	<rect x="263.7" y="113.4" fill="#FFFFFF" width="41.1" height="12"/>
	<rect x="231" y="113.4" fill="#FFFFFF" width="20.5" height="12"/>
	<rect x="286.2" y="92.6" fill="#FFFFFF" width="18.5" height="12"/>
	<rect x="231" y="191.7" opacity="0.2" width="43.9" height="8"/>
	<polygon fill="#F8754F" points="243,243.3 237.3,235.5 231,243.3 231,218 243,218 	"/>
	<g>
		<path fill="#0071BC" d="M508.3,155.2c15.5,15.5,15.5,40.7,0,56.2c-15.5,15.5-40.7,15.5-56.2,0c-7.8-7.8-11.6-17.9-11.6-28.1
			c0-10.2,26.4,3.6,34.2-4.2c7.8-7.8-4.6-35.6,5.6-35.6C490.3,143.5,500.5,147.4,508.3,155.2z"/>
		<path fill="#24BCFF" d="M480,183l0.2-39.8c-11,0.1-21.3,4.6-28.3,11.7c-7.1,7-11.3,17.1-11.5,28.1H480z"/>
		<g opacity="0.5">
			<path fill="#094159" d="M480.3,183.2l-39.9,0.2c0,4.8,0.7,16.9,11.6,28.1"/>
		</g>
		<path fill="#0071BC" d="M440.4,183.3"/>
	</g>
</g>
</svg>
