<?xml version="1.0" encoding="utf-8"?>
<!-- Generator: Adobe Illustrator 18.1.1, SVG Export Plug-In . SVG Version: 6.00 Build 0)  -->
<svg version="1.1" id="Layer_1" xmlns="http://www.w3.org/2000/svg" xmlns:xlink="http://www.w3.org/1999/xlink" x="0px" y="0px"
	 viewBox="0 0 478 324.4" enable-background="new 0 0 478 324.4" xml:space="preserve">
<g>
	<g>
		<g>

				<ellipse transform="matrix(0.6599 -0.7514 0.7514 0.6599 -116.1576 348.8199)" fill="#E6E6E6" cx="327.2" cy="302.7" rx="16.7" ry="26.4"/>

				<ellipse transform="matrix(-0.9155 -0.4024 0.4024 -0.9155 486.583 677.7612)" fill="#E6E6E6" cx="314.5" cy="287.8" rx="9" ry="14.3"/>
		</g>
		<path fill="#F5F5F5" d="M359.6,285.9c1.3,20.3-8,37.4-20.9,38.2c-12.9,0.8-24.3-14.9-25.7-35.2c-1.3-20.3,0.1-43.9,21.2-40.1
			C357.4,253,358.3,265.6,359.6,285.9z"/>
		<path fill="#666666" d="M337.3,275.1c0,1.4-1.1,2.5-2.5,2.5l0,0c-1.4,0-2.5-1.1-2.5-2.5l0-10c0-1.4,1.1-2.5,2.5-2.5l0,0
			c1.4,0,2.5,1.1,2.5,2.5L337.3,275.1z"/>
		<g>
			<rect x="129" y="258" fill="#333333" width="143" height="50"/>
			<rect x="140" y="267" fill="#666666" width="103" height="32"/>
			<rect x="254.3" y="267.3" fill="#FFFFFF" width="8.6" height="32"/>
			<polygon opacity="0.1" fill="#FFFFFF" points="183.2,299 243,299 243,267 211.9,267 			"/>
			<g>
				<polygon fill="#4C4C4C" points="173.4,324.4 173.4,313.4 248.5,313.3 248.6,324.3 				"/>
				<path fill="#666666" d="M173.4,324.3l0-11l-5,0.1c-2.2,0-4,2.5-4,5.5c0,3,1.9,5.5,4.1,5.5L173.4,324.3z"/>
				<rect x="173.4" y="318.4" opacity="0.1" width="75.1" height="6"/>
				<g>
					<polygon fill="#666666" points="264.2,319 261.6,316.2 248.5,313.3 248.5,324.3 261.9,322.1 					"/>
					<circle fill="#666666" cx="261.2" cy="319.2" r="3"/>
				</g>
			</g>
		</g>
	</g>
	<g>
		<g>
			<g>

					<rect x="77.3" y="38.2" transform="matrix(-0.818 0.5752 -0.5752 -0.818 207.5959 113.6994)" fill="#7AC943" width="17" height="103"/>

					<rect x="110.8" y="131.5" transform="matrix(-0.818 0.5752 -0.5752 -0.818 287.9617 174.9718)" fill="#666666" width="11" height="3"/>

					<rect x="78" y="40.5" transform="matrix(-0.818 0.5753 -0.5753 -0.818 202.9729 119.7551)" opacity="0.1" width="9" height="103"/>
				<g>
					<path fill="#FBB03B" d="M107,167.8c1.7,2.5,5.2,3.1,7.7,1.3l0,0c2.5-1.7,3.1-5.2,1.3-7.7l-2.2-3.1l-9,6.3L107,167.8z"/>

						<rect x="72.5" y="65.4" transform="matrix(-0.818 0.5752 -0.5752 -0.818 209.0534 167.6981)" fill="#0071BC" width="11" height="103"/>
					<polygon fill="#FFF8C2" points="37.1,58.9 52.6,71.8 43.6,78.1 					"/>
					<polygon fill="#666666" points="37,58.9 42.3,63.2 39.3,65.3 					"/>

						<rect x="103" y="158.8" transform="matrix(-0.818 0.5752 -0.5752 -0.818 289.4125 228.9882)" fill="#666666" width="11" height="3"/>

						<rect x="73" y="66.9" transform="matrix(-0.818 0.5752 -0.5752 -0.818 206.1625 171.4895)" opacity="0.1" width="6" height="103"/>
				</g>

					<rect x="43.8" y="30.4" transform="matrix(0.5752 0.818 -0.818 0.5752 48.6144 -23.8499)" fill="#7AC943" width="7" height="9"/>
				<polygon fill="#666666" points="63.1,42.7 51.8,33.5 44.5,38.7 49.2,52.5 				"/>
			</g>
			<g>
				<g>
					<rect x="1" y="99" fill="#F8754F" width="87" height="110"/>
					<g>
						<path fill="#333333" d="M17.7,156.5v-13.6h6v13.4c0,2.7,1.6,4.7,4.8,4.7c3.2,0,4.8-2,4.8-4.7v-13.4h6v13.6
							c0,5.7-3.4,9.7-10.8,9.7C21.2,166.2,17.7,162.1,17.7,156.5z"/>
						<path fill="#333333" d="M58,165.7l-5-7.7l-5,7.7h-7l8-11.7l-7.4-11.2h7L53,150l4.4-7.2h7L57,154l8,11.8H58z"/>
					</g>
					<rect x="18.5" y="187.4" fill="#FFFFFF" width="8.5" height="3.9"/>
					<rect x="30.5" y="187.4" fill="#FFFFFF" width="26.7" height="3.9"/>
					<rect x="18.5" y="195.2" fill="#FFFFFF" width="17.8" height="3.9"/>
					<rect x="18.5" y="108.1" opacity="0.5" fill="#333333" width="13.9" height="3.9"/>
					<rect x="40" y="195" fill="#FFFFFF" width="9.4" height="3.9"/>
					<rect x="1" y="99" opacity="0.5" fill="#333333" width="8" height="110"/>
				</g>
				<rect x="22" y="88" fill="#24BCFF" width="7" height="11"/>
				<rect x="30" y="91" fill="#FF55A2" width="7" height="8"/>
				<rect x="11" y="93" fill="#FBB03B" width="7" height="6"/>
			</g>
			<g>
				<path fill="#333333" d="M478,195.3c0,7.2-5.8,12.7-12.7,12.7h-51.5c-7,0-12.8-5.5-12.8-12.7V51.4c0-7.2,5.9-12.4,12.8-12.4h51.5
					c7,0,12.7,5.2,12.7,12.4V195.3z"/>
				<rect x="409" y="63" fill="#FFFFFF" width="62" height="117"/>
				<rect x="409" y="63" fill="#FBB03B" width="44" height="117"/>
				<rect x="459.2" y="69.1" fill="#CCCCCC" width="6.2" height="6.2"/>
				<rect x="415.4" y="69.3" fill="#FFFFFF" width="27.3" height="5.6"/>
				<rect x="415.4" y="80.6" fill="#FFFFFF" width="8.8" height="5.6"/>
				<rect x="415.4" y="91.9" fill="#FFFFFF" width="25.7" height="5.6"/>
				<rect x="415.4" y="103.2" fill="#FFFFFF" width="16.2" height="5.6"/>
				<rect x="415.4" y="114.5" fill="#FFFFFF" width="25.6" height="5.6"/>
				<rect x="415.4" y="125.8" fill="#FFFFFF" width="11" height="5.6"/>
				<rect x="415.4" y="148.4" fill="#FFFFFF" width="17.6" height="5.6"/>
				<rect x="415.4" y="159.7" fill="#FFFFFF" width="27.2" height="5.6"/>
				<rect x="415.4" y="137.1" fill="#FFFFFF" width="28.8" height="5.6"/>
				<path fill="#4D4D4D" d="M447,193.8c0,4-3.2,7.2-7.2,7.2h-0.5c-4,0-7.2-3.2-7.2-7.2v-0.5c0-4,3.2-7.2,7.2-7.2h0.5
					c4,0,7.2,3.2,7.2,7.2V193.8z"/>
				<path fill="#4D4D4D" d="M450,51.8c0,0.7-0.6,1.2-1.2,1.2h-18.5c-0.7,0-1.2-0.6-1.2-1.2v-0.5c0-0.7,0.6-1.2,1.2-1.2h18.5
					c0.7,0,1.2,0.6,1.2,1.2V51.8z"/>
			</g>
			<path fill="#E6E6E6" d="M410.8,232h-336c-3.9,0-7-3-7-6.7V8c0-3.7,3.2-6.7,7-6.7h336c3.9,0,7,3,7,6.7v217.4
				C417.8,229,414.6,232,410.8,232z"/>
			<g>
				<defs>
					<rect id="SVGID_1_" x="99.4" y="28.3" width="318.4" height="203.7"/>
				</defs>
				<use xlink:href="#SVGID_1_"  overflow="visible" fill="#E6E6E6"/>
				<clipPath id="SVGID_2_">
					<use xlink:href="#SVGID_1_"  overflow="visible"/>
				</clipPath>
				<path clip-path="url(#SVGID_2_)" fill="#E6E6E6" d="M15.6,232h393.9c4.5,0,8.2-2.9,8.2-6.5V4.4c0-3.6-3.7-6.5-8.2-6.5H15.6
					c-4.5,0-8.2,2.9-8.2,6.5v221.1C7.4,229.1,11.1,232,15.6,232z"/>
			</g>
			<polygon fill="#FFFFFF" points="407.4,216.1 401.3,222 99.4,222 99.4,28.8 407.4,28.8 			"/>
			<rect x="99.4" y="28.6" fill="#24BCFF" width="58.1" height="193.2"/>
			<rect x="67.7" y="28.6" fill="#333333" width="31.7" height="203.3"/>
			<rect x="112.5" y="45.9" fill="#FFFFFF" width="27.3" height="8"/>
			<rect x="112.5" y="61.9" fill="#FFFFFF" width="8.8" height="8"/>
			<rect x="112.5" y="77.9" fill="#FFFFFF" width="32.4" height="8"/>
			<rect x="112.5" y="93.9" fill="#FFFFFF" width="16.2" height="8"/>
			<rect x="112.5" y="109.9" fill="#FFFFFF" width="25.6" height="8"/>
			<rect x="177.1" y="109.9" fill="#666666" width="25.6" height="8"/>
			<rect x="254.4" y="109.9" opacity="0.2" fill="#666666" width="25.6" height="8"/>
			<rect x="290.9" y="109.4" opacity="0.2" fill="#666666" width="21.1" height="8"/>
			<rect x="331.1" y="109.9" opacity="0.2" fill="#666666" width="25.6" height="8"/>
			<rect x="112.5" y="125.9" fill="#FFFFFF" width="11" height="8"/>
			<rect x="112.5" y="157.9" fill="#FFFFFF" width="17.6" height="8"/>
			<rect x="112.5" y="173.9" fill="#FFFFFF" width="36.7" height="8"/>
			<rect x="112.5" y="141.9" fill="#FFFFFF" width="28.8" height="8"/>
			<rect x="292.2" y="46.3" fill="#FFFFFF" width="100.4" height="47.3"/>
			<path fill="#FFFFFF" d="M407.4,216.1c0,0.5-0.1,1-0.2,1.5c-0.7,2.5-2.9,4.4-5.6,4.4c-3.2,0-5.8-2.6-5.8-5.9
				c0-3.3,2.6-5.9,5.8-5.9C404.8,210.2,407.4,212.9,407.4,216.1z"/>
			<rect x="177" y="46" fill="#666666" width="58" height="57"/>
			<rect x="254" y="46" opacity="0.2" fill="#666666" width="57" height="57"/>
			<rect x="331" y="46" opacity="0.2" fill="#666666" width="57" height="57"/>
			<rect x="178.4" y="197.9" opacity="0.2" fill="#666666" width="25.6" height="8"/>
			<rect x="211.9" y="197.9" opacity="0.2" fill="#666666" width="12.6" height="8"/>
			<rect x="331.1" y="197.9" opacity="0.2" fill="#666666" width="13.1" height="8"/>
			<rect x="353.1" y="197.9" opacity="0.2" fill="#666666" width="21.1" height="8"/>
			<rect x="178" y="134" opacity="0.2" fill="#666666" width="135" height="57"/>
			<rect x="331" y="134" opacity="0.2" fill="#666666" width="57" height="57"/>
			<circle fill="#FF1D25" cx="80.3" cy="15.1" r="3.4"/>
			<circle fill="#7AC943" cx="101" cy="15.1" r="3.4"/>
			<circle fill="#FF931E" cx="90.7" cy="15.1" r="3.4"/>
			<g>
				<rect x="78.6" y="44.9" fill="#666666" width="8.6" height="8"/>
				<rect x="78.6" y="60.9" fill="#666666" width="8.6" height="8"/>
				<rect x="78.6" y="76.9" fill="#666666" width="8.6" height="8"/>
				<rect x="78.6" y="95" fill="#666666" width="8.6" height="22"/>
				<rect x="78.6" y="124.9" fill="#666666" width="8.6" height="40.3"/>
				<rect x="78.6" y="172.9" fill="#666666" width="8.6" height="8"/>
				<rect x="78.6" y="188.9" fill="#666666" width="8.6" height="8"/>
				<rect x="78.6" y="204.9" fill="#666666" width="8.6" height="8"/>
			</g>
		</g>
		<polygon opacity="0.1" points="79.3,231.6 64.2,231.6 56.2,99 72.2,99 		"/>
	</g>
</g>
</svg>
