<?xml version="1.0" encoding="utf-8"?>
<!-- Generator: Adobe Illustrator 18.1.1, SVG Export Plug-In . SVG Version: 6.00 Build 0)  -->
<svg version="1.1" id="Layer_1" xmlns="http://www.w3.org/2000/svg" xmlns:xlink="http://www.w3.org/1999/xlink" x="0px" y="0px"
	 viewBox="0 0 409.9 394.2" enable-background="new 0 0 409.9 394.2" xml:space="preserve">
<g>
	<path fill="#CCCCCC" d="M41.3,344.8c-1.2-1.2-1.2-3.1,0-4.2l0,0c1.2-1.2,3.1-1.2,4.2,0l13.2,13.2c1.2,1.2,1.2,3.1,0,4.2l0,0
		c-1.2,1.2-3.1,1.2-4.2,0L41.3,344.8z"/>
	<g>
		<path fill="#1A1A1A" d="M401,241.2c0,11.3-10.2,20.8-21.2,20.8H245.5c-11,0-19.5-9.5-19.5-20.8V19c0-11.3,8.5-19,19.5-19h134.4
			c11,0,21.2,7.7,21.2,19V241.2z"/>
		<rect x="238" y="59" fill="#FFFFFF" width="151" height="161"/>
		<rect x="238" y="33" fill="#0071BC" width="151" height="26"/>
		<path fill="#4D4D4D" d="M325,241.6c0,6.3-5.1,11.4-11.4,11.4h-1.1c-6.3,0-11.4-5.1-11.4-11.4v-1.1c0-6.3,5.1-11.4,11.4-11.4h1.1
			c6.3,0,11.4,5.1,11.4,11.4V241.6z"/>
		<path fill="#4D4D4D" d="M329,17c0,1.1-0.9,2-2,2H298c-1.1,0-2-0.9-2-2V17c0-1.1,0.9-2,2-2H327C328.1,15,329,15.9,329,17L329,17z"
			/>
		<rect x="319" y="116" fill="#F8754F" width="60" height="65"/>
		<rect x="247.9" y="42.6" opacity="0.2" fill="#1A1A1A" width="43" height="8.9"/>
		<g>
			<rect x="248" y="145" fill="#FBB03B" width="61" height="38"/>
			<rect x="248.7" y="190.9" fill="#CCCCCC" width="34.3" height="7"/>
			<rect x="248.7" y="202.8" fill="#CCCCCC" width="19.9" height="7"/>
			<rect x="275" y="202.8" fill="#CCCCCC" width="21.1" height="7"/>
			<rect x="288.9" y="190.5" fill="#CCCCCC" width="14.4" height="7"/>
		</g>
		<rect x="248" y="69" fill="#24BCFF" width="61" height="65"/>
		<rect x="319" y="69" fill="#7AC943" width="60" height="39"/>
		<rect x="254.7" y="120.6" fill="#FFFFFF" width="21.5" height="7"/>
		<rect x="319" y="146" fill="#F8754F" width="60" height="65"/>
		<polygon opacity="0.2" points="379,180 365.8,166.7 340.4,188.8 319,180 319,211 379,211 		"/>
		<circle opacity="0.2" cx="333.8" cy="159.9" r="5.1"/>
	</g>
	<g>
		<path fill="#F5F5F5" d="M316.3,263.4h-296c-4.3,0-7.8-3.5-7.8-7.8v-51.9V56.8c0-4.3,3.5-7.8,7.8-7.8h296c4.3,0,7.8,3.5,7.8,7.8
			v198.8C324.1,259.9,320.6,263.4,316.3,263.4z"/>
		<circle fill="#FF1D25" cx="26.5" cy="62.1" r="3.8"/>
		<circle fill="#7AC943" cx="49.5" cy="62.1" r="3.8"/>
		<circle fill="#FF931E" cx="38" cy="62.1" r="3.8"/>
		<rect x="22.7" y="85.2" fill="#CCCCCC" width="8.9" height="8.9"/>
		<rect x="22.7" y="103" fill="#CCCCCC" width="8.9" height="8.9"/>
		<rect x="22.7" y="120.8" fill="#CCCCCC" width="8.9" height="8.9"/>
		<rect x="22.7" y="138.6" fill="#CCCCCC" width="8.9" height="8.9"/>
		<rect x="22.7" y="156.4" fill="#CCCCCC" width="8.9" height="8.9"/>
		<rect x="22.7" y="174.2" fill="#CCCCCC" width="8.9" height="8.9"/>
		<rect x="22.7" y="192" fill="#CCCCCC" width="8.9" height="8.9"/>
		<polygon fill="#CCCCCC" points="31.6,218.7 22.7,218.7 22.7,209.8 28.6,209.8 31.6,209.8 		"/>
		<rect x="22.7" y="227.6" fill="#CCCCCC" width="8.9" height="8.9"/>
		<rect x="22.7" y="245.4" fill="#CCCCCC" width="8.9" height="8.9"/>
		<rect x="47.6" y="85.2" fill="#7AC943" width="47.5" height="8.9"/>
		<rect x="47.6" y="103" fill="#F8754F" width="33.8" height="8.9"/>
		<rect x="115.9" y="174.2" fill="#CCCCCC" width="33.8" height="8.9"/>
		<rect x="58.8" y="120.8" fill="#CCCCCC" width="56.4" height="8.9"/>
		<rect x="69.9" y="138.6" fill="#CCCCCC" width="28.2" height="8.9"/>
		<rect x="126.3" y="120.8" fill="#CCCCCC" width="28.2" height="8.9"/>
		<rect x="165.6" y="120.8" fill="#CCCCCC" width="28.2" height="8.9"/>
		<rect x="156.8" y="245.4" fill="#CCCCCC" width="28.2" height="8.9"/>
		<rect x="196.1" y="245.4" fill="#CCCCCC" width="28.2" height="8.9"/>
		<rect x="104.8" y="227.6" fill="#CCCCCC" width="29.8" height="8.9"/>
		<rect x="117.6" y="156.4" fill="#CCCCCC" width="32.1" height="8.9"/>
		<rect x="137.2" y="156.4" fill="#CCCCCC" width="19.2" height="8.9"/>
		<rect x="111.4" y="138.6" fill="#F8754F" width="61.8" height="8.9"/>
		<rect x="58.8" y="245.4" fill="#CCCCCC" width="86.9" height="8.9"/>
		<rect x="59" y="192" fill="#CCCCCC" width="39.1" height="8.9"/>
		<rect x="70.1" y="174.2" fill="#CCCCCC" width="34.7" height="8.9"/>
		<rect x="168.7" y="156.4" fill="#CCCCCC" width="50.1" height="8.9"/>
		<rect x="47.6" y="209.8" fill="#CCCCCC" width="30.7" height="8.9"/>
		<rect x="47.8" y="227.6" fill="#7AC943" width="46.1" height="8.9"/>
		<rect x="89.7" y="209.8" fill="#CCCCCC" width="29.1" height="8.9"/>
	</g>
	<g>
		<path fill="#F5F5F5" d="M122.3,320.7h-17.6c-1.7,0-3-1.3-3-3v-13.2c0-1.7,1.3-3,3-3h17.6c1.6,0,3,1.3,3,3v13.2
			C125.3,319.3,123.9,320.7,122.3,320.7z"/>
		<path fill="#F5F5F5" d="M151.8,320.7h-17.6c-1.7,0-3-1.3-3-3v-13.2c0-1.7,1.3-3,3-3h17.6c1.7,0,3,1.3,3,3v13.2
			C154.8,319.3,153.4,320.7,151.8,320.7z"/>
		<path fill="#F5F5F5" d="M181.3,320.7h-17.6c-1.6,0-3-1.3-3-3v-13.2c0-1.7,1.4-3,3-3h17.6c1.7,0,3,1.3,3,3v13.2
			C184.3,319.3,183,320.7,181.3,320.7z"/>
		<path fill="#F5F5F5" d="M210.8,320.7h-17.6c-1.6,0-3-1.3-3-3v-13.2c0-1.7,1.4-3,3-3h17.6c1.7,0,3,1.3,3,3v13.2
			C213.8,319.3,212.5,320.7,210.8,320.7z"/>
		<path fill="#F5F5F5" d="M240.3,320.7h-17.6c-1.6,0-3-1.3-3-3v-13.2c0-1.7,1.4-3,3-3h17.6c1.6,0,3,1.3,3,3v13.2
			C243.3,319.3,242,320.7,240.3,320.7z"/>
		<path fill="#F5F5F5" d="M269.9,320.7h-17.6c-1.6,0-3-1.3-3-3v-13.2c0-1.7,1.4-3,3-3h17.6c1.6,0,3,1.3,3,3v13.2
			C272.9,319.3,271.5,320.7,269.9,320.7z"/>
		<path fill="#F5F5F5" d="M122.3,369.7h-17.6c-1.7,0-3-1.3-3-3v-13.2c0-1.7,1.3-3,3-3h17.6c1.6,0,3,1.3,3,3v13.2
			C125.3,368.3,123.9,369.7,122.3,369.7z"/>
		<path fill="#F5F5F5" d="M151.8,369.7h-17.6c-1.7,0-3-1.3-3-3v-13.2c0-1.7,1.3-3,3-3h17.6c1.7,0,3,1.3,3,3v13.2
			C154.8,368.3,153.4,369.7,151.8,369.7z"/>
		<path fill="#F5F5F5" d="M181.3,369.7h-17.6c-1.6,0-3-1.3-3-3v-13.2c0-1.7,1.4-3,3-3h17.6c1.7,0,3,1.3,3,3v13.2
			C184.3,368.3,183,369.7,181.3,369.7z"/>
		<path fill="#F5F5F5" d="M210.8,369.7h-17.6c-1.6,0-3-1.3-3-3v-13.2c0-1.7,1.4-3,3-3h17.6c1.7,0,3,1.3,3,3v13.2
			C213.8,368.3,212.5,369.7,210.8,369.7z"/>
		<path fill="#F5F5F5" d="M240.3,369.7h-17.6c-1.6,0-3-1.3-3-3v-13.2c0-1.7,1.4-3,3-3h17.6c1.6,0,3,1.3,3,3v13.2
			C243.3,368.3,242,369.7,240.3,369.7z"/>
		<path fill="#F5F5F5" d="M269.9,369.7h-17.6c-1.6,0-3-1.3-3-3v-13.2c0-1.7,1.4-3,3-3h17.6c1.6,0,3,1.3,3,3v13.2
			C272.9,368.3,271.5,369.7,269.9,369.7z"/>
		<path fill="#F5F5F5" d="M269.9,369.7h-17.6c-1.6,0-3-1.3-3-3v-13.2c0-1.7,1.4-3,3-3h17.6c1.6,0,3,1.3,3,3v13.2
			C272.9,368.3,271.5,369.7,269.9,369.7z"/>
		<path fill="#F5F5F5" d="M299.4,369.7h-17.6c-1.6,0-3-1.3-3-3v-13.2c0-1.7,1.4-3,3-3h17.6c1.6,0,3,1.3,3,3v13.2
			C302.4,368.3,301,369.7,299.4,369.7z"/>
		<path fill="#F5F5F5" d="M328.9,369.7h-17.6c-1.6,0-3-1.3-3-3v-13.2c0-1.7,1.4-3,3-3h17.6c1.6,0,3,1.3,3,3v13.2
			C331.9,368.3,330.6,369.7,328.9,369.7z"/>
		<path fill="#F5F5F5" d="M376.2,369.7h-35.3c-1.7,0-3-1.3-3-3v-13.2c0-1.7,1.3-3,3-3h35.3c1.6,0,3,1.3,3,3v13.2
			C379.2,368.3,377.8,369.7,376.2,369.7z"/>
		<path fill="#F5F5F5" d="M358.4,394.2h-17.6c-1.7,0-3-1.3-3-3V378c0-1.7,1.3-3,3-3h17.6c1.7,0,3,1.3,3,3v13.2
			C361.4,392.8,360.1,394.2,358.4,394.2z"/>
		<path fill="#F5F5F5" d="M299.4,320.7h-17.6c-1.6,0-3-1.3-3-3v-13.2c0-1.7,1.4-3,3-3h17.6c1.6,0,3,1.3,3,3v13.2
			C302.4,319.3,301,320.7,299.4,320.7z"/>
		<path fill="#F5F5F5" d="M328.9,320.7h-17.6c-1.6,0-3-1.3-3-3v-13.2c0-1.7,1.4-3,3-3h17.6c1.6,0,3,1.3,3,3v13.2
			C331.9,319.3,330.6,320.7,328.9,320.7z"/>
		<path fill="#F5F5F5" d="M358.4,320.7h-17.6c-1.7,0-3-1.3-3-3v-13.2c0-1.7,1.3-3,3-3h17.6c1.7,0,3,1.3,3,3v13.2
			C361.4,319.3,360.1,320.7,358.4,320.7z"/>
		<path fill="#F5F5F5" d="M140,345.2h-35.3c-1.7,0-3-1.3-3-3V329c0-1.7,1.3-3,3-3H140c1.7,0,3,1.3,3,3v13.2
			C143,343.8,141.6,345.2,140,345.2z"/>
		<path fill="#F5F5F5" d="M140,394.2h-35.3c-1.7,0-3-1.3-3-3V378c0-1.7,1.3-3,3-3H140c1.7,0,3,1.3,3,3v13.2
			C143,392.8,141.6,394.2,140,394.2z"/>
		<path fill="#F5F5F5" d="M406.9,394.2h-35.3c-1.6,0-3-1.3-3-3V378c0-1.7,1.4-3,3-3h35.3c1.7,0,3,1.3,3,3v13.2
			C409.9,392.8,408.6,394.2,406.9,394.2z"/>
		<path fill="#F5F5F5" d="M140,369.7h-35.3c-1.7,0-3-1.3-3-3v-13.2c0-1.7,1.3-3,3-3H140c1.7,0,3,1.3,3,3v13.2
			C143,368.3,141.6,369.7,140,369.7z"/>
		<path fill="#F5F5F5" d="M328.9,394.2h-177c-1.6,0-3-1.3-3-3V378c0-1.7,1.4-3,3-3h177c1.6,0,3,1.3,3,3v13.2
			C331.9,392.8,330.6,394.2,328.9,394.2z"/>
		<path fill="#F5F5F5" d="M406.9,320.7h-35.3c-1.6,0-3-1.3-3-3v-13.2c0-1.7,1.4-3,3-3h35.3c1.7,0,3,1.3,3,3v13.2
			C409.9,319.3,408.6,320.7,406.9,320.7z"/>
		<path fill="#F5F5F5" d="M169.5,345.2h-17.6c-1.6,0-3-1.3-3-3V329c0-1.7,1.4-3,3-3h17.6c1.7,0,3,1.3,3,3v13.2
			C172.5,343.8,171.2,345.2,169.5,345.2z"/>
		<path fill="#F5F5F5" d="M199,345.2h-17.6c-1.7,0-3-1.3-3-3V329c0-1.7,1.3-3,3-3H199c1.7,0,3,1.3,3,3v13.2
			C202,343.8,200.7,345.2,199,345.2z"/>
		<path fill="#F5F5F5" d="M406.9,369.7h-17.6c-1.6,0-3-1.3-3-3V329c0-1.7,1.4-3,3-3h17.6c1.7,0,3,1.3,3,3v37.7
			C409.9,368.3,408.6,369.7,406.9,369.7z"/>
		<path fill="#F5F5F5" d="M228.6,345.2H211c-1.7,0-3-1.3-3-3V329c0-1.7,1.3-3,3-3h17.6c1.7,0,3,1.3,3,3v13.2
			C231.6,343.8,230.2,345.2,228.6,345.2z"/>
		<path fill="#F5F5F5" d="M258.1,345.2h-17.6c-1.7,0-3-1.3-3-3V329c0-1.7,1.3-3,3-3h17.6c1.7,0,3,1.3,3,3v13.2
			C261.1,343.8,259.7,345.2,258.1,345.2z"/>
		<path fill="#F5F5F5" d="M287.6,345.2H270c-1.7,0-3-1.3-3-3V329c0-1.7,1.3-3,3-3h17.6c1.7,0,3,1.3,3,3v13.2
			C290.6,343.8,289.3,345.2,287.6,345.2z"/>
		<path fill="#F5F5F5" d="M317.1,345.2h-17.6c-1.7,0-3-1.3-3-3V329c0-1.7,1.3-3,3-3h17.6c1.7,0,3,1.3,3,3v13.2
			C320.1,343.8,318.8,345.2,317.1,345.2z"/>
		<path fill="#F5F5F5" d="M346.6,345.2h-17.6c-1.7,0-3-1.3-3-3V329c0-1.7,1.3-3,3-3h17.6c1.7,0,3,1.3,3,3v13.2
			C349.6,343.8,348.3,345.2,346.6,345.2z"/>
		<path fill="#F5F5F5" d="M346.6,345.2h-17.6c-1.7,0-3-1.3-3-3V329c0-1.7,1.3-3,3-3h17.6c1.7,0,3,1.3,3,3v13.2
			C349.6,343.8,348.3,345.2,346.6,345.2z"/>
		<path fill="#F5F5F5" d="M355.6,342.2V329c0-1.7,1.3-3,3-3h17.6c1.6,0,3,1.3,3,3v13.2c0,1.7-1.4,3-3,3h-17.6
			C356.9,345.2,355.6,343.8,355.6,342.2z"/>
	</g>
	<g>
		<path fill="#333333" d="M335,259c0,7.2-6,13-13,13h-51.5c-7,0-12.6-5.8-12.6-13V115.1c0-7.2,5.6-12.1,12.6-12.1H322
			c7,0,13,4.9,13,12.1V259z"/>
		<rect x="266" y="127" fill="#FFFFFF" width="62" height="117"/>
		<rect x="316" y="132.7" fill="#4D4D4D" width="6.2" height="2.2"/>
		<rect x="316" y="136.3" fill="#4D4D4D" width="6.2" height="2.1"/>
		<path fill="#4D4D4D" d="M304,257.8c0,4-3.2,7.2-7.2,7.2h-0.5c-4,0-7.2-3.2-7.2-7.2v-0.5c0-4,3.2-7.2,7.2-7.2h0.5
			c4,0,7.2,3.2,7.2,7.2V257.8z"/>
		<path fill="#4D4D4D" d="M307,115.8c0,0.7-0.6,1.2-1.2,1.2h-18.5c-0.7,0-1.2-0.6-1.2-1.2v-0.5c0-0.7,0.6-1.2,1.2-1.2h18.5
			c0.7,0,1.2,0.6,1.2,1.2V115.8z"/>
		<rect x="272" y="146" fill="#24BCFF" width="50" height="18"/>
		<rect x="272" y="132.7" fill="#CCCCCC" width="18" height="6.2"/>
		<rect x="296.5" y="151.9" fill="#FFFFFF" width="18" height="6.2"/>
		<rect x="272" y="146" fill="#0071BC" width="18" height="18"/>
		<rect x="272" y="171" fill="#7AC943" width="50" height="18"/>
		<rect x="296.5" y="176.9" fill="#FFFFFF" width="18" height="6.2"/>
		<rect x="272" y="171" fill="#61A32C" width="18" height="18"/>
		<rect x="272" y="196" fill="#FBB03B" width="50" height="18"/>
		<rect x="272" y="196" fill="#FBB03B" width="18" height="18"/>
		<rect x="272" y="221" fill="#24BCFF" width="50" height="18"/>
		<rect x="296.5" y="226.9" fill="#FFFFFF" width="18" height="6.2"/>
		<rect x="272" y="221" fill="#0071BC" width="18" height="18"/>
		<rect x="278.5" y="201.9" fill="#FFFFFF" width="11.5" height="6.2"/>
	</g>
	<rect x="345" y="232" fill="#333333" width="34" height="8"/>
	<g>
		<rect x="369.5" y="43.2" fill="#FFFFFF" width="9.8" height="3.4"/>
		<rect x="369.5" y="48.8" fill="#FFFFFF" width="9.8" height="3.2"/>
	</g>
	<circle fill="#F5F5F5" cx="28.5" cy="330.1" r="28.5"/>
	<circle fill="#CCCCCC" cx="28.8" cy="330" r="25.5"/>
	<circle fill="#9E521E" cx="29.3" cy="330.5" r="19.9"/>
	<path fill="#633006" d="M14.9,344.7c1.6,1.6,5.2,3.5,5.2,3.5s-5.4-12.1,1.5-20.3c10.9-11.5,25.3-6.6,25.3-6.6s-2.4-3.6-3.9-5.2
		c-7.8-7.8-20.4-7.3-28.1,0.4C7.1,324.3,7.1,336.9,14.9,344.7z"/>
</g>
</svg>
