<?xml version="1.0" encoding="utf-8"?>
<!-- Generator: Adobe Illustrator 18.1.1, SVG Export Plug-In . SVG Version: 6.00 Build 0)  -->
<svg version="1.1" id="Layer_1" xmlns="http://www.w3.org/2000/svg" xmlns:xlink="http://www.w3.org/1999/xlink" x="0px" y="0px"
	 viewBox="0 0 519.5 408.3" enable-background="new 0 0 519.5 408.3" xml:space="preserve">
<g>
	<g>
		<path fill="#E6E6E6" d="M343.5,270.7H7.5c-3.9,0-7-3.2-7-7V35c0-3.9,3.2-7,7-7h336c3.9,0,7,3.2,7,7v228.7
			C350.5,267.5,347.4,270.7,343.5,270.7z"/>
		<circle fill="#FF1D25" cx="13.1" cy="39.8" r="3.4"/>
		<circle fill="#7AC943" cx="33.8" cy="39.8" r="3.4"/>
		<circle fill="#FF931E" cx="23.5" cy="39.8" r="3.4"/>
		<g>
			<defs>
				<rect id="SVGID_1_" x="0.5" y="51" width="78.5" height="219.7"/>
			</defs>
			<use xlink:href="#SVGID_1_"  overflow="visible" fill="#333333"/>
			<clipPath id="SVGID_2_">
				<use xlink:href="#SVGID_1_"  overflow="visible"/>
			</clipPath>
			<path clip-path="url(#SVGID_2_)" fill="#333333" d="M343.5,270.7H7.5c-3.9,0-7-3.2-7-7V25.2c0-3.9,3.2-7,7-7h336c3.9,0,7,3.2,7,7
				v238.4C350.5,267.5,347.4,270.7,343.5,270.7z"/>
		</g>
		<g>
			<defs>
				<rect id="SVGID_3_" x="79" y="51" width="271.5" height="219.7"/>
			</defs>
			<clipPath id="SVGID_4_">
				<use xlink:href="#SVGID_3_"  overflow="visible"/>
			</clipPath>
			<path clip-path="url(#SVGID_4_)" fill="#4D4D4D" d="M7.5,270.7h336c3.9,0,7-3.2,7-7V25.2c0-3.9-3.2-7-7-7H7.5c-3.9,0-7,3.2-7,7
				v238.4C0.5,267.5,3.7,270.7,7.5,270.7z"/>
		</g>
		<rect x="9.7" y="60.5" fill="#4D4D4D" width="42.7" height="8"/>
		<rect x="9.7" y="76.5" fill="#CCCCCC" width="13.8" height="8"/>
		<rect x="9.7" y="92.5" fill="#4D4D4D" width="50.7" height="8"/>
		<rect x="9.7" y="108.5" fill="#4D4D4D" width="25.3" height="8"/>
		<rect x="9.7" y="124.5" fill="#4D4D4D" width="40" height="8"/>
		<rect x="9.7" y="140.5" fill="#4D4D4D" width="17.2" height="8"/>
		<rect x="9.7" y="156.5" fill="#4D4D4D" width="45" height="8"/>
		<rect x="9.7" y="172.5" fill="#4D4D4D" width="27.6" height="8"/>
		<rect x="9.7" y="188.5" fill="#4D4D4D" width="57.4" height="8"/>
		<rect x="9.7" y="156.5" fill="#4D4D4D" width="45" height="8"/>
		<rect x="91.6" y="61.4" fill="#666666" width="8" height="8"/>
		<rect x="91.6" y="77.4" fill="#666666" width="8" height="8"/>
		<rect x="91.6" y="93.4" fill="#666666" width="8" height="8"/>
		<rect x="91.6" y="109.4" fill="#666666" width="8" height="8"/>
		<rect x="91.6" y="125.4" fill="#666666" width="8" height="8"/>
		<rect x="91.6" y="141.4" fill="#666666" width="8" height="8"/>
		<rect x="91.6" y="157.4" fill="#666666" width="8" height="8"/>
		<rect x="91.6" y="173.4" fill="#666666" width="8" height="8"/>
		<rect x="91.6" y="189.4" fill="#666666" width="8" height="8"/>
		<rect x="91.6" y="205.4" fill="#666666" width="8" height="8"/>
		<rect x="91.6" y="221.4" fill="#666666" width="8" height="8"/>
		<rect x="91.6" y="237.4" fill="#666666" width="8" height="8"/>
		<rect x="91.6" y="253.4" fill="#666666" width="8" height="8"/>
		<rect x="114" y="61.4" fill="#00E1FF" width="42.7" height="8"/>
		<rect x="114" y="77.4" fill="#FF55A2" width="30.4" height="8"/>
		<rect x="175.4" y="141.4" fill="#666666" width="30.4" height="8"/>
		<rect x="124" y="93.4" fill="#666666" width="50.7" height="8"/>
		<rect x="134" y="109.4" fill="#666666" width="25.3" height="8"/>
		<rect x="196.7" y="109.4" fill="#666666" width="25.3" height="8"/>
		<rect x="184.7" y="93.4" fill="#CCCCCC" width="25.3" height="8"/>
		<rect x="220" y="93.4" fill="#666666" width="25.3" height="8"/>
		<rect x="186.6" y="205.4" fill="#666666" width="33.4" height="8"/>
		<rect x="227" y="205.4" fill="#CCCCCC" width="25.3" height="8"/>
		<rect x="165.4" y="189.4" fill="#666666" width="26.8" height="8"/>
		<rect x="144" y="125.4" fill="#666666" width="44.6" height="8"/>
		<rect x="169.4" y="109.4" fill="#FF55A2" width="55.6" height="8"/>
		<rect x="124" y="205.4" fill="#666666" width="54" height="8"/>
		<rect x="134" y="221.4" fill="#CCCCCC" width="25.3" height="8"/>
		<rect x="134" y="253.4" fill="#666666" width="25.3" height="8"/>
		<rect x="144" y="237.4" fill="#666666" width="58.1" height="8"/>
		<rect x="209.8" y="237.4" fill="#CCCCCC" width="17.2" height="8"/>
		<rect x="169.4" y="221.4" fill="#666666" width="24.9" height="8"/>
		<rect x="124.2" y="157.4" fill="#666666" width="35.2" height="8"/>
		<rect x="134.2" y="141.4" fill="#CCCCCC" width="31.2" height="8"/>
		<rect x="197.5" y="125.4" fill="#666666" width="45" height="8"/>
		<rect x="114" y="173.4" fill="#666666" width="27.6" height="8"/>
		<rect x="114.2" y="189.4" fill="#00E1FF" width="41.4" height="8"/>
		<rect x="151.8" y="173.4" fill="#CCCCCC" width="26.2" height="8"/>
	</g>
	<g>
		<path fill="#E6E6E6" d="M512.5,270.7h-336c-3.9,0-7-3.2-7-7V35c0-3.9,3.2-7,7-7h336c3.9,0,7,3.2,7,7v228.7
			C519.5,267.5,516.4,270.7,512.5,270.7z"/>
		<circle fill="#FF1D25" cx="182.1" cy="39.8" r="3.4"/>
		<circle fill="#7AC943" cx="202.8" cy="39.8" r="3.4"/>
		<circle fill="#FF931E" cx="192.5" cy="39.8" r="3.4"/>
		<g>
			<defs>
				<rect id="SVGID_5_" x="169.5" y="51" width="78.5" height="219.7"/>
			</defs>
			<use xlink:href="#SVGID_5_"  overflow="visible" fill="#333333"/>
			<clipPath id="SVGID_6_">
				<use xlink:href="#SVGID_5_"  overflow="visible"/>
			</clipPath>
			<path clip-path="url(#SVGID_6_)" fill="#333333" d="M512.5,270.7h-336c-3.9,0-7-3.2-7-7V25.2c0-3.9,3.2-7,7-7h336
				c3.9,0,7,3.2,7,7v238.4C519.5,267.5,516.4,270.7,512.5,270.7z"/>
		</g>
		<g>
			<defs>
				<rect id="SVGID_7_" x="248" y="51" width="271.5" height="219.7"/>
			</defs>
			<clipPath id="SVGID_8_">
				<use xlink:href="#SVGID_7_"  overflow="visible"/>
			</clipPath>
			<path clip-path="url(#SVGID_8_)" fill="#4D4D4D" d="M176.5,270.7h336c3.9,0,7-3.2,7-7V25.2c0-3.9-3.2-7-7-7h-336
				c-3.9,0-7,3.2-7,7v238.4C169.5,267.5,172.7,270.7,176.5,270.7z"/>
		</g>
		<rect x="178.7" y="60.5" fill="#4D4D4D" width="42.7" height="8"/>
		<rect x="178.7" y="76.5" fill="#CCCCCC" width="13.8" height="8"/>
		<rect x="178.7" y="92.5" fill="#4D4D4D" width="50.7" height="8"/>
		<rect x="178.7" y="108.5" fill="#4D4D4D" width="25.3" height="8"/>
		<rect x="178.7" y="124.5" fill="#4D4D4D" width="40" height="8"/>
		<rect x="178.7" y="140.5" fill="#4D4D4D" width="17.2" height="8"/>
		<rect x="178.7" y="156.5" fill="#4D4D4D" width="45" height="8"/>
		<rect x="178.7" y="172.5" fill="#4D4D4D" width="27.6" height="8"/>
		<rect x="178.7" y="188.5" fill="#4D4D4D" width="57.4" height="8"/>
		<rect x="178.7" y="156.5" fill="#4D4D4D" width="45" height="8"/>
		<rect x="260.6" y="61.4" fill="#666666" width="8" height="8"/>
		<rect x="260.6" y="77.4" fill="#666666" width="8" height="8"/>
		<rect x="260.6" y="93.4" fill="#666666" width="8" height="8"/>
		<rect x="260.6" y="109.4" fill="#666666" width="8" height="8"/>
		<rect x="260.6" y="125.4" fill="#666666" width="8" height="8"/>
		<rect x="260.6" y="141.4" fill="#666666" width="8" height="8"/>
		<rect x="260.6" y="157.4" fill="#666666" width="8" height="8"/>
		<rect x="260.6" y="173.4" fill="#666666" width="8" height="8"/>
		<rect x="260.6" y="189.4" fill="#666666" width="8" height="8"/>
		<rect x="260.6" y="205.4" fill="#666666" width="8" height="8"/>
		<rect x="260.6" y="221.4" fill="#666666" width="8" height="8"/>
		<rect x="260.6" y="237.4" fill="#666666" width="8" height="8"/>
		<rect x="260.6" y="253.4" fill="#666666" width="8" height="8"/>
		<rect x="283" y="61.4" fill="#00E1FF" width="42.7" height="8"/>
		<rect x="283" y="77.4" fill="#FF55A2" width="30.4" height="8"/>
		<rect x="344.4" y="141.4" fill="#666666" width="30.4" height="8"/>
		<rect x="293" y="93.4" fill="#666666" width="50.7" height="8"/>
		<rect x="303" y="109.4" fill="#666666" width="25.3" height="8"/>
		<rect x="365.7" y="109.4" fill="#666666" width="25.3" height="8"/>
		<rect x="353.7" y="93.4" fill="#CCCCCC" width="25.3" height="8"/>
		<rect x="389" y="93.4" fill="#666666" width="25.3" height="8"/>
		<rect x="355.6" y="205.4" fill="#666666" width="33.4" height="8"/>
		<rect x="396" y="205.4" fill="#CCCCCC" width="25.3" height="8"/>
		<rect x="334.4" y="189.4" fill="#666666" width="26.8" height="8"/>
		<rect x="313" y="125.4" fill="#666666" width="44.6" height="8"/>
		<rect x="338.4" y="109.4" fill="#FF55A2" width="55.6" height="8"/>
		<rect x="293" y="205.4" fill="#666666" width="54" height="8"/>
		<rect x="303" y="221.4" fill="#CCCCCC" width="25.3" height="8"/>
		<rect x="303" y="253.4" fill="#666666" width="25.3" height="8"/>
		<rect x="313" y="237.4" fill="#666666" width="58.1" height="8"/>
		<rect x="378.8" y="237.4" fill="#CCCCCC" width="17.2" height="8"/>
		<rect x="338.4" y="221.4" fill="#666666" width="24.9" height="8"/>
		<rect x="293.2" y="157.4" fill="#666666" width="35.2" height="8"/>
		<rect x="303.2" y="141.4" fill="#CCCCCC" width="31.2" height="8"/>
		<rect x="366.5" y="125.4" fill="#666666" width="45" height="8"/>
		<rect x="283" y="173.4" fill="#666666" width="27.6" height="8"/>
		<rect x="283.2" y="189.4" fill="#00E1FF" width="41.4" height="8"/>
		<rect x="320.8" y="173.4" fill="#CCCCCC" width="26.2" height="8"/>
	</g>
	<g>
		<polygon opacity="0.1" points="178,271 128,271 108,28 178,28 		"/>
		<g>
			<path fill="#E6E6E6" d="M475.5,231.7h-336c-3.9,0-7-3-7-6.7V7.7c0-3.7,3.2-6.7,7-6.7h336c3.9,0,7,3,7,6.7V225
				C482.5,228.7,479.4,231.7,475.5,231.7z"/>
			<rect x="132.5" y="27.9" fill="#FFFFFF" width="350" height="262.8"/>
			<circle fill="#FF1D25" cx="145.1" cy="15.8" r="3.4"/>
			<circle fill="#7AC943" cx="165.8" cy="15.8" r="3.4"/>
			<circle fill="#FF931E" cx="155.5" cy="15.8" r="3.4"/>
		</g>
		<rect x="155" y="51" fill="#7AC943" width="307" height="97"/>
		<rect x="156" y="171" fill="#FBB03B" width="142" height="120"/>
		<rect x="176.5" y="93.3" fill="#FFFFFF" width="27.3" height="8"/>
		<rect x="235.5" y="93.3" fill="#FFFFFF" width="28.2" height="8"/>
		<rect x="206.4" y="109" opacity="0.2" width="39.3" height="8"/>
		<rect x="177.4" y="109" opacity="0.2" width="21.4" height="8"/>
		<rect x="228.4" y="123.7" opacity="0.2" width="27.4" height="8"/>
		<rect x="177.4" y="123.7" opacity="0.2" width="43.9" height="8"/>
		<rect x="213.1" y="93.3" fill="#FFFFFF" width="12.3" height="8"/>
		<rect x="205.9" y="247.4" opacity="0.2" width="39.3" height="8"/>
		<rect x="176.9" y="247.4" opacity="0.2" width="21.4" height="8"/>
		<rect x="176.9" y="263.1" opacity="0.2" width="43.9" height="8"/>
		<rect x="318" y="171" fill="#333333" width="63" height="59"/>
		<rect x="399" y="171" fill="#724A82" width="63" height="59"/>
		<rect x="347.2" y="245.6" opacity="0.2" width="24.8" height="8"/>
		<rect x="318.2" y="245.6" opacity="0.2" width="21.4" height="8"/>
		<rect x="318.2" y="260.4" opacity="0.2" width="43.9" height="8"/>
		<rect x="400.5" y="245.6" opacity="0.2" width="54.8" height="8"/>
		<rect x="400.5" y="260.4" opacity="0.2" width="18.8" height="8"/>
		<polygon opacity="0.2" points="434,112.5 407,126 407,99 434,112.5 		"/>
	</g>
</g>
<g>
	<g>
		<path fill="#F5F5F5" d="M174.9,334.8h-17.6c-1.7,0-3-1.3-3-3v-13.2c0-1.7,1.3-3,3-3h17.6c1.6,0,3,1.3,3,3v13.2
			C177.9,333.5,176.6,334.8,174.9,334.8z"/>
		<path fill="#F5F5F5" d="M204.4,334.8h-17.6c-1.7,0-3-1.3-3-3v-13.2c0-1.7,1.3-3,3-3h17.6c1.7,0,3,1.3,3,3v13.2
			C207.4,333.5,206.1,334.8,204.4,334.8z"/>
		<path fill="#F5F5F5" d="M234,334.8h-17.6c-1.6,0-3-1.3-3-3v-13.2c0-1.7,1.4-3,3-3H234c1.7,0,3,1.3,3,3v13.2
			C237,333.5,235.6,334.8,234,334.8z"/>
		<path fill="#F5F5F5" d="M263.5,334.8h-17.6c-1.6,0-3-1.3-3-3v-13.2c0-1.7,1.4-3,3-3h17.6c1.7,0,3,1.3,3,3v13.2
			C266.5,333.5,265.1,334.8,263.5,334.8z"/>
		<path fill="#F5F5F5" d="M293,334.8h-17.6c-1.6,0-3-1.3-3-3v-13.2c0-1.7,1.4-3,3-3H293c1.6,0,3,1.3,3,3v13.2
			C296,333.5,294.7,334.8,293,334.8z"/>
		<path fill="#F5F5F5" d="M322.5,334.8H305c-1.6,0-3-1.3-3-3v-13.2c0-1.7,1.4-3,3-3h17.6c1.6,0,3,1.3,3,3v13.2
			C325.5,333.5,324.2,334.8,322.5,334.8z"/>
		<path fill="#F5F5F5" d="M174.9,383.8h-17.6c-1.7,0-3-1.3-3-3v-13.2c0-1.7,1.3-3,3-3h17.6c1.6,0,3,1.3,3,3v13.2
			C177.9,382.5,176.6,383.8,174.9,383.8z"/>
		<path fill="#F5F5F5" d="M204.4,383.8h-17.6c-1.7,0-3-1.3-3-3v-13.2c0-1.7,1.3-3,3-3h17.6c1.7,0,3,1.3,3,3v13.2
			C207.4,382.5,206.1,383.8,204.4,383.8z"/>
		<path fill="#F5F5F5" d="M234,383.8h-17.6c-1.6,0-3-1.3-3-3v-13.2c0-1.7,1.4-3,3-3H234c1.7,0,3,1.3,3,3v13.2
			C237,382.5,235.6,383.8,234,383.8z"/>
		<path fill="#F5F5F5" d="M263.5,383.8h-17.6c-1.6,0-3-1.3-3-3v-13.2c0-1.7,1.4-3,3-3h17.6c1.7,0,3,1.3,3,3v13.2
			C266.5,382.5,265.1,383.8,263.5,383.8z"/>
		<path fill="#F5F5F5" d="M293,383.8h-17.6c-1.6,0-3-1.3-3-3v-13.2c0-1.7,1.4-3,3-3H293c1.6,0,3,1.3,3,3v13.2
			C296,382.5,294.7,383.8,293,383.8z"/>
		<path fill="#F5F5F5" d="M322.5,383.8H305c-1.6,0-3-1.3-3-3v-13.2c0-1.7,1.4-3,3-3h17.6c1.6,0,3,1.3,3,3v13.2
			C325.5,382.5,324.2,383.8,322.5,383.8z"/>
		<path fill="#F5F5F5" d="M322.5,383.8H305c-1.6,0-3-1.3-3-3v-13.2c0-1.7,1.4-3,3-3h17.6c1.6,0,3,1.3,3,3v13.2
			C325.5,382.5,324.2,383.8,322.5,383.8z"/>
		<path fill="#F5F5F5" d="M352.1,383.8h-17.6c-1.6,0-3-1.3-3-3v-13.2c0-1.7,1.4-3,3-3h17.6c1.6,0,3,1.3,3,3v13.2
			C355.1,382.5,353.7,383.8,352.1,383.8z"/>
		<path fill="#F5F5F5" d="M381.6,383.8H364c-1.6,0-3-1.3-3-3v-13.2c0-1.7,1.4-3,3-3h17.6c1.6,0,3,1.3,3,3v13.2
			C384.6,382.5,383.2,383.8,381.6,383.8z"/>
		<path fill="#F5F5F5" d="M428.8,383.8h-35.3c-1.7,0-3-1.3-3-3v-13.2c0-1.7,1.3-3,3-3h35.3c1.6,0,3,1.3,3,3v13.2
			C431.8,382.5,430.5,383.8,428.8,383.8z"/>
		<path fill="#F5F5F5" d="M411.1,408.3h-17.6c-1.7,0-3-1.3-3-3v-13.2c0-1.7,1.3-3,3-3h17.6c1.7,0,3,1.3,3,3v13.2
			C414.1,407,412.7,408.3,411.1,408.3z"/>
		<path fill="#F5F5F5" d="M352.1,334.8h-17.6c-1.6,0-3-1.3-3-3v-13.2c0-1.7,1.4-3,3-3h17.6c1.6,0,3,1.3,3,3v13.2
			C355.1,333.5,353.7,334.8,352.1,334.8z"/>
		<path fill="#F5F5F5" d="M381.6,334.8H364c-1.6,0-3-1.3-3-3v-13.2c0-1.7,1.4-3,3-3h17.6c1.6,0,3,1.3,3,3v13.2
			C384.6,333.5,383.2,334.8,381.6,334.8z"/>
		<path fill="#F5F5F5" d="M411.1,334.8h-17.6c-1.7,0-3-1.3-3-3v-13.2c0-1.7,1.3-3,3-3h17.6c1.7,0,3,1.3,3,3v13.2
			C414.1,333.5,412.7,334.8,411.1,334.8z"/>
		<path fill="#F5F5F5" d="M192.7,359.3h-35.3c-1.7,0-3-1.3-3-3v-13.2c0-1.7,1.3-3,3-3h35.3c1.7,0,3,1.3,3,3v13.2
			C195.7,358,194.3,359.3,192.7,359.3z"/>
		<path fill="#F5F5F5" d="M192.7,408.3h-35.3c-1.7,0-3-1.3-3-3v-13.2c0-1.7,1.3-3,3-3h35.3c1.7,0,3,1.3,3,3v13.2
			C195.7,407,194.3,408.3,192.7,408.3z"/>
		<path fill="#F5F5F5" d="M459.6,408.3h-35.3c-1.6,0-3-1.3-3-3v-13.2c0-1.7,1.4-3,3-3h35.3c1.7,0,3,1.3,3,3v13.2
			C462.6,407,461.2,408.3,459.6,408.3z"/>
		<path fill="#F5F5F5" d="M192.7,383.8h-35.3c-1.7,0-3-1.3-3-3v-13.2c0-1.7,1.3-3,3-3h35.3c1.7,0,3,1.3,3,3v13.2
			C195.7,382.5,194.3,383.8,192.7,383.8z"/>
		<path fill="#F5F5F5" d="M381.6,408.3h-177c-1.6,0-3-1.3-3-3v-13.2c0-1.7,1.4-3,3-3h177c1.6,0,3,1.3,3,3v13.2
			C384.6,407,383.2,408.3,381.6,408.3z"/>
		<path fill="#F5F5F5" d="M459.6,334.8h-35.3c-1.6,0-3-1.3-3-3v-13.2c0-1.7,1.4-3,3-3h35.3c1.7,0,3,1.3,3,3v13.2
			C462.6,333.5,461.2,334.8,459.6,334.8z"/>
		<path fill="#F5F5F5" d="M222.2,359.3h-17.6c-1.6,0-3-1.3-3-3v-13.2c0-1.7,1.4-3,3-3h17.6c1.7,0,3,1.3,3,3v13.2
			C225.2,358,223.8,359.3,222.2,359.3z"/>
		<path fill="#F5F5F5" d="M251.7,359.3h-17.6c-1.7,0-3-1.3-3-3v-13.2c0-1.7,1.3-3,3-3h17.6c1.7,0,3,1.3,3,3v13.2
			C254.7,358,253.4,359.3,251.7,359.3z"/>
		<path fill="#F5F5F5" d="M459.6,383.8H442c-1.6,0-3-1.3-3-3v-37.7c0-1.7,1.4-3,3-3h17.6c1.7,0,3,1.3,3,3v37.7
			C462.6,382.5,461.2,383.8,459.6,383.8z"/>
		<path fill="#F5F5F5" d="M281.2,359.3h-17.6c-1.7,0-3-1.3-3-3v-13.2c0-1.7,1.3-3,3-3h17.6c1.7,0,3,1.3,3,3v13.2
			C284.2,358,282.9,359.3,281.2,359.3z"/>
		<path fill="#F5F5F5" d="M310.7,359.3h-17.6c-1.7,0-3-1.3-3-3v-13.2c0-1.7,1.3-3,3-3h17.6c1.7,0,3,1.3,3,3v13.2
			C313.7,358,312.4,359.3,310.7,359.3z"/>
		<path fill="#F5F5F5" d="M340.3,359.3h-17.6c-1.7,0-3-1.3-3-3v-13.2c0-1.7,1.3-3,3-3h17.6c1.7,0,3,1.3,3,3v13.2
			C343.3,358,341.9,359.3,340.3,359.3z"/>
		<path fill="#F5F5F5" d="M369.8,359.3h-17.6c-1.7,0-3-1.3-3-3v-13.2c0-1.7,1.3-3,3-3h17.6c1.7,0,3,1.3,3,3v13.2
			C372.8,358,371.4,359.3,369.8,359.3z"/>
		<path fill="#F5F5F5" d="M399.3,359.3h-17.6c-1.7,0-3-1.3-3-3v-13.2c0-1.7,1.3-3,3-3h17.6c1.7,0,3,1.3,3,3v13.2
			C402.3,358,401,359.3,399.3,359.3z"/>
		<path fill="#F5F5F5" d="M399.3,359.3h-17.6c-1.7,0-3-1.3-3-3v-13.2c0-1.7,1.3-3,3-3h17.6c1.7,0,3,1.3,3,3v13.2
			C402.3,358,401,359.3,399.3,359.3z"/>
		<path fill="#F5F5F5" d="M408.3,356.3v-13.2c0-1.7,1.3-3,3-3h17.6c1.6,0,3,1.3,3,3v13.2c0,1.7-1.4,3-3,3h-17.6
			C409.6,359.3,408.3,358,408.3,356.3z"/>
	</g>
	<g>
		<g>

				<ellipse transform="matrix(-0.6599 -0.7514 0.7514 -0.6599 -132.9337 696.5868)" fill="#E6E6E6" cx="91.2" cy="378.4" rx="16.7" ry="26.4"/>

				<ellipse transform="matrix(0.9155 -0.4024 0.4024 0.9155 -137.4553 72.5349)" fill="#E6E6E6" cx="103.9" cy="363.4" rx="9" ry="14.3"/>
		</g>
		<path fill="#F5F5F5" d="M58.8,361.5c-1.3,20.3,8,37.4,20.9,38.2c12.9,0.8,24.3-14.9,25.7-35.2c1.3-20.3-0.1-43.9-21.2-40.1
			C61,328.7,60.1,341.3,58.8,361.5z"/>
		<path fill="#666666" d="M81.1,350.7c0,1.4,1.1,2.5,2.5,2.5l0,0c1.4,0,2.5-1.1,2.5-2.5l0-10c0-1.4-1.1-2.5-2.5-2.5l0,0
			c-1.4,0-2.5,1.1-2.5,2.5L81.1,350.7z"/>
		<g>
			<g>
				<path fill="#E6E6E6" d="M2.2,348c1.9,0,1.9-3,0-3C0.2,345,0.2,348,2.2,348L2.2,348z"/>
			</g>
		</g>
	</g>
</g>
</svg>
